<?xml version='1.0' encoding='UTF-8' standalone='no'?>
<!-- Created with Inkscape (http://www.inkscape.org/) -->
<svg xmlns="http://www.w3.org/2000/svg" viewBox="0 0 68.249855 32.88393" id="svg8" gorn="0" width="68.249855mm"  height="32.88393mm" version="1.1">
    <desc >
        <referenceFile >getriebemotor.svg</referenceFile>
    </desc>
    <defs id="defs2" />
    <metadata id="metadata5" >
        <rdf:RDF xmlns:rdf="http://www.w3.org/1999/02/22-rdf-syntax-ns#">
            <cc:Work xmlns:rdf="http://www.w3.org/1999/02/22-rdf-syntax-ns#" rdf:about="" xmlns:cc="http://creativecommons.org/ns#">
                <dc:format xmlns:dc="http://purl.org/dc/elements/1.1/">image/svg+xml</dc:format>
                <dc:type xmlns:rdf="http://www.w3.org/1999/02/22-rdf-syntax-ns#" rdf:resource="http://purl.org/dc/dcmitype/StillImage" xmlns:dc="http://purl.org/dc/elements/1.1/"/>
                <dc:title xmlns:dc="http://purl.org/dc/elements/1.1/"/>
            </cc:Work>
        </rdf:RDF>
    </metadata>
    <g  transform="translate(-130.56757,-152.87001)">
        <g >
            <g >
                <g >
                    <g id="layer1" gorn="0.3.0.0.0.0" >
                        <rect id="rect1137" y="152.87001" stroke="none" fill-opacity="1" gorn="0.3.0.0.0.0.0" fill="#e6e6e6" width="3.8742559" x="183.41293" style="opacity:1;stroke-linecap:square;stroke-linejoin:miter;stroke-miterlimit:4;stroke-dasharray:none;paint-order:stroke markers fill"  height="32.88393" stroke-width="0.46025991"/>
                        <rect id="rect1133" y="159.62346" stroke="none" fill-opacity="1" gorn="0.3.0.0.0.0.1" fill="#ffd42a" width="35.543594" x="159.42952" style="opacity:1;stroke-linecap:square;stroke-linejoin:miter;stroke-miterlimit:4;stroke-dasharray:none;paint-order:stroke markers fill"  height="19.377041" stroke-width="0.23130967"/>
                        <rect id="rect1135" y="167.842" stroke="none" fill-opacity="1" gorn="0.3.0.0.0.0.2" fill="#ffd42a" width="5.4790254" x="193.33839" style="opacity:1;stroke-linecap:square;stroke-linejoin:miter;stroke-miterlimit:4;stroke-dasharray:none;paint-order:stroke markers fill"  height="2.9399648" stroke-width="0.26458332"/>
                        <rect id="rect1159" y="163.95506" stroke-opacity="1" stroke="none" fill-opacity="1" gorn="0.3.0.0.0.0.3" ry="0.71185577" fill="#4d4d4d" width="4.6534395" x="130.56757" style="opacity:1;stroke-linecap:round;stroke-linejoin:miter;stroke-miterlimit:0.30000001;stroke-dasharray:none;paint-order:stroke markers fill"  height="10.750236" stroke-width="0.56961066"/>
                        <rect id="rect1157" y="161.59975" stroke-opacity="1" stroke="none" fill-opacity="1" gorn="0.3.0.0.0.0.4" ry="1.0237825" fill="#4d4d4d" width="4.6534395" x="132.15506" style="opacity:1;stroke-linecap:round;stroke-linejoin:miter;stroke-miterlimit:0.30000001;stroke-dasharray:none;paint-order:stroke markers fill"  height="15.460861" stroke-width="0.68310261"/>
                        <path id="path1151" stroke-opacity="1" stroke="#ffcc00" gorn="0.3.0.0.0.0.5" d="m 151.45046,160.32008 0.7087,-0.68214 h 0.56697" fill="none" style="fill-rule:evenodd;stroke-linecap:round;stroke-linejoin:miter;stroke-miterlimit:0.30000001;stroke-dasharray:none;"  stroke-width="0.565"/>
                        <path id="path1153" stroke-opacity="1" stroke="#ffcc00" gorn="0.3.0.0.0.0.6" d="m 151.45046,178.30388 0.7087,0.68214 h 0.56697" fill="none" style="fill-rule:evenodd;stroke-linecap:round;stroke-linejoin:miter;stroke-miterlimit:0.30000001;stroke-dasharray:none;"  stroke-width="0.565"/>
                        <rect id="rect1139" y="160.2115" stroke="none" fill-opacity="1" gorn="0.3.0.0.0.0.7" fill="#ffd42a" width="10.866816" x="148.6572" style="opacity:1;stroke-linecap:square;stroke-linejoin:miter;stroke-miterlimit:4;stroke-dasharray:none;paint-order:stroke markers fill"  height="18.237352" stroke-width="0.26458332"/>
                        <rect id="rect1143" y="160.29709" stroke="#d4aa00" fill-opacity="1" gorn="0.3.0.0.0.0.8" fill="#d4aa00" width="0.80604148" x="158.53789" style="opacity:1;stroke-linecap:square;stroke-linejoin:miter;stroke-miterlimit:4;stroke-dasharray:none;paint-order:stroke markers fill"  height="18.066181" stroke-width="0.17116322"/>
                        <rect id="rect1155" y="161.08557" stroke-opacity="1" stroke="none" fill-opacity="1" gorn="0.3.0.0.0.0.9" fill="#cccccc" width="13.436213" x="135.22098" style="opacity:1;stroke-linecap:round;stroke-linejoin:miter;stroke-miterlimit:0.30000001;stroke-dasharray:none;paint-order:stroke markers fill"  height="16.489212" stroke-width="0.64475358"/>
                        <path id="path1141" stroke-opacity="1" stroke="#d4aa00" gorn="0.3.0.0.0.0.10" d="M 198.81741,169.31198 H 148.6572" fill="#ffcc00" style="opacity:0.45;fill-rule:evenodd;stroke-linecap:butt;stroke-linejoin:miter;"  stroke-width="0.0705993"/>
                        <g  transform="translate(5.308448,0.31683905)">
                            <g >
                                <g >
                                    <g >
                                        <g id="g1176" gorn="0.3.0.0.0.0.11.0.0.0.0" >
                                            <rect id="rect1170" y="158.89694" stroke-opacity="1" stroke="none" fill-opacity="1" gorn="0.3.0.0.0.0.11.0.0.0.0.0" ry="0.68508178" fill="#deaa87" width="1.3701636" x="127.61421" style="opacity:1;stroke-linecap:round;stroke-linejoin:miter;stroke-miterlimit:0.30000001;stroke-dasharray:none;paint-order:stroke markers fill"  height="3.4962797" stroke-width="0.56499994"/>
                                            <rect id="rect1172" y="160.00725" stroke-opacity="1" stroke="none" fill-opacity="1" gorn="0.3.0.0.0.0.11.0.0.0.0.1" ry="0.24996227" fill="#ffffff" width="0.49992454" x="128.04933" style="opacity:1;stroke-linecap:round;stroke-linejoin:miter;stroke-miterlimit:0.30000001;stroke-dasharray:none;paint-order:stroke markers fill"  height="1.2756696" stroke-width="0.20614862"/>
                                        </g>
                                    </g>
                                </g>
                            </g>
                        </g>
                        <g  transform="translate(5.308448,17.053366)">
                            <g >
                                <g >
                                    <g >
                                        <g id="g1184" gorn="0.3.0.0.0.0.12.0.0.0.0" >
                                            <rect id="rect1180" y="158.89694" stroke-opacity="1" stroke="none" fill-opacity="1" gorn="0.3.0.0.0.0.12.0.0.0.0.0" ry="0.68508178" fill="#deaa87" width="1.3701636" x="127.61421" style="opacity:1;stroke-linecap:round;stroke-linejoin:miter;stroke-miterlimit:0.30000001;stroke-dasharray:none;paint-order:stroke markers fill"  height="3.4962797" stroke-width="0.56499994"/>
                                            <rect id="rect1182" y="160.00725" stroke-opacity="1" stroke="none" fill-opacity="1" gorn="0.3.0.0.0.0.12.0.0.0.0.1" ry="0.24996227" fill="#ffffff" width="0.49992454" x="128.04933" style="opacity:1;stroke-linecap:round;stroke-linejoin:miter;stroke-miterlimit:0.30000001;stroke-dasharray:none;paint-order:stroke markers fill"  height="1.2756696" stroke-width="0.20614862"/>
                                        </g>
                                    </g>
                                </g>
                            </g>
                        </g>
                        <g  transform="scale(1,-1)">
                            <g >
                                <g >
                                    <g >
                                        <rect id="rect1186" y="-161.0948" stroke-opacity="1" stroke="none" fill-opacity="1" gorn="0.3.0.0.0.0.13.0.0.0.0" ry="0" fill="#e6e6e6" width="0.24786311" x="133.48381" style="opacity:1;stroke-linecap:round;stroke-linejoin:miter;stroke-miterlimit:0.30000001;stroke-dasharray:none;paint-order:stroke markers fill"  height="0.26577097" stroke-width="0.3532683"/>
                                    </g>
                                </g>
                            </g>
                        </g>
                        <g  transform="scale(1,-1)">
                            <g >
                                <g >
                                    <g >
                                        <rect id="rect1188" y="-177.83133" stroke-opacity="1" stroke="none" fill-opacity="1" gorn="0.3.0.0.0.0.14.0.0.0.0" ry="0" fill="#e6e6e6" width="0.24786311" x="133.48381" style="opacity:1;stroke-linecap:round;stroke-linejoin:miter;stroke-miterlimit:0.30000001;stroke-dasharray:none;paint-order:stroke markers fill"  height="0.26577097" stroke-width="0.3532683"/>
                                    </g>
                                </g>
                            </g>
                        </g>
                        <g  transform="rotate(-90)">
                            <g >
                                <g >
                                    <g >
                                        <g aria-label="DC 3-6V" id="text1192" stroke-opacity="1" stroke="none" fill-opacity="1" gorn="0.3.0.0.0.0.15.0.0.0.0" fill="#000000" font-size="0.796494" style="font-style:normal;font-variant:normal;font-weight:normal;font-stretch:normal;line-height:125%;font-family:Droid Sans;-inkscape-font-specification:'OCR A Extended, Normal';font-variant-ligatures:normal;font-variant-caps:normal;font-variant-numeric:normal;font-feature-settings:normal;text-align:start;letter-spacing:0px;word-spacing:0px;writing-mode:lr-tb;text-anchor:start;stroke-linecap:butt;stroke-linejoin:miter;"  stroke-width="0.0746713">
                                            <path id="path1201" gorn="0.3.0.0.0.0.15.0.0.0.0.0" d="m -174.90985,141.02338 h 0.45751 q 0.0896,0.001 0.17363,0.0579 0.0854,0.0565 0.1254,0.13643 l 0.22875,0.46302 q 0.0648,0.1254 0.0648,0.26183 0,0.12678 -0.0689,0.26045 l -0.23013,0.4575 q -0.0441,0.0882 -0.12678,0.14194 -0.0827,0.0524 -0.18466,0.0524 h -0.44235 q -0.0482,0 -0.0827,-0.0345 -0.0331,-0.0344 -0.0331,-0.0813 0,-0.0482 0.0331,-0.0827 0.0345,-0.0358 0.0827,-0.0358 h 0.12127 v -1.36288 h -0.11851 q -0.0482,0 -0.0827,-0.0345 -0.0331,-0.0358 -0.0331,-0.0841 0,-0.0469 0.0331,-0.0813 0.0344,-0.0345 0.0827,-0.0345 z m 0.35002,0.23427 v 1.36564 h 0.0813 q 0.0772,0 0.11576,-0.0758 l 0.22875,-0.45475 q 0.0427,-0.0896 0.0427,-0.1502 0,-0.0758 -0.0345,-0.14332 l -0.23702,-0.47129 q -0.0372,-0.0703 -0.12127,-0.0703 z" font-size="0.796494" style="font-style:normal;font-variant:normal;font-weight:normal;font-stretch:normal;font-family:Droid Sans;-inkscape-font-specification:'OCR A Extended, Normal';font-variant-ligatures:normal;font-variant-caps:normal;font-variant-numeric:normal;font-feature-settings:normal;text-align:start;writing-mode:lr-tb;text-anchor:start;"  stroke-width="0.0746713"/>
                                            <path id="path1203" gorn="0.3.0.0.0.0.15.0.0.0.0.1" d="m -172.68432,142.62329 h 0.41754 q 0.0482,0 0.0827,0.0344 0.0358,0.0331 0.0358,0.0813 0,0.0482 -0.0358,0.0827 -0.0344,0.0331 -0.0827,0.0331 h -0.4327 q -0.0827,0 -0.17088,-0.0524 -0.0882,-0.0524 -0.12264,-0.11713 l -0.26734,-0.51677 q -0.0537,-0.11162 -0.0537,-0.22875 0,-0.12954 0.051,-0.22462 l 0.2701,-0.51125 q 0.0386,-0.0717 0.11989,-0.1254 0.0813,-0.0551 0.15709,-0.0551 h 0.45751 q 0.0482,0 0.0813,0.0345 0.0344,0.0344 0.0344,0.0813 0,0.0482 -0.0344,0.0841 -0.0331,0.0345 -0.0813,0.0345 h -0.44097 q -0.0551,0 -0.0896,0.0648 l -0.25632,0.47956 q -0.0303,0.0565 -0.0303,0.13367 0,0.0813 0.0331,0.14331 l 0.24529,0.47129 q 0.0345,0.073 0.113,0.073 z" font-size="0.796494" style="font-style:normal;font-variant:normal;font-weight:normal;font-stretch:normal;font-family:Droid Sans;-inkscape-font-specification:'OCR A Extended, Normal';font-variant-ligatures:normal;font-variant-caps:normal;font-variant-numeric:normal;font-feature-settings:normal;text-align:start;writing-mode:lr-tb;text-anchor:start;"  stroke-width="0.0746713"/>
                                            <path id="path1205" gorn="0.3.0.0.0.0.15.0.0.0.0.2" d="m -168.74727,141.2549 v 0.43408 q 0,0.15158 -0.0937,0.24529 0.0965,0.10748 0.0965,0.23426 v 0.452 q 0,0.0951 -0.0689,0.16399 -0.0689,0.0675 -0.16537,0.0675 h -0.81855 q -0.0482,0 -0.0827,-0.0331 -0.0331,-0.0345 -0.0331,-0.0827 0,-0.0482 0.0331,-0.0813 0.0344,-0.0344 0.0827,-0.0344 h 0.8158 v -0.452 q 0,-0.0482 -0.0345,-0.0827 -0.0331,-0.0358 -0.0813,-0.0358 h -0.46577 q -0.0482,0 -0.0827,-0.0331 -0.0331,-0.0331 -0.0331,-0.0827 0,-0.0482 0.0331,-0.0813 0.0344,-0.0344 0.0827,-0.0344 h 0.46853 q 0.0468,0 0.0813,-0.0331 0.0344,-0.0344 0.0344,-0.0827 v -0.44786 h -0.82682 q -0.0482,0 -0.0827,-0.0331 -0.0331,-0.0345 -0.0331,-0.0827 0,-0.0482 0.0331,-0.0813 0.0345,-0.0345 0.0827,-0.0345 h 0.82682 q 0.0965,0 0.16399,0.0689 0.0675,0.0675 0.0675,0.16261 z" font-size="0.796494" style="font-style:normal;font-variant:normal;font-weight:normal;font-stretch:normal;font-family:Droid Sans;-inkscape-font-specification:'OCR A Extended, Normal';font-variant-ligatures:normal;font-variant-caps:normal;font-variant-numeric:normal;font-feature-settings:normal;text-align:start;writing-mode:lr-tb;text-anchor:start;"  stroke-width="0.0746713"/>
                                            <path id="path1207" gorn="0.3.0.0.0.0.15.0.0.0.0.3" d="m -167.04401,141.93151 v 0.10198 q 0,0.0482 -0.0345,0.0841 -0.0331,0.0344 -0.0813,0.0344 h -0.93431 q -0.0482,0 -0.0827,-0.0344 -0.0331,-0.0358 -0.0331,-0.0841 v -0.10198 q 0,-0.0482 0.0331,-0.0813 0.0344,-0.0344 0.0827,-0.0344 h 0.93431 q 0.0441,0 0.0799,0.0331 0.0358,0.0317 0.0358,0.0827 z" font-size="0.796494" style="font-style:normal;font-variant:normal;font-weight:normal;font-stretch:normal;font-family:Droid Sans;-inkscape-font-specification:'OCR A Extended, Normal';font-variant-ligatures:normal;font-variant-caps:normal;font-variant-numeric:normal;font-feature-settings:normal;text-align:start;writing-mode:lr-tb;text-anchor:start;"  stroke-width="0.0746713"/>
                                            <path id="path1209" gorn="0.3.0.0.0.0.15.0.0.0.0.4" d="m -166.38806,141.02338 h 0.11575 q 0.0482,0 0.0813,0.0345 0.0345,0.0344 0.0345,0.0813 0,0.0482 -0.0345,0.0827 -0.0331,0.0331 -0.0813,0.0331 v 0.76481 h 0.8158 q 0.0469,0 0.0813,0.0358 0.0345,0.0344 0.0345,0.0827 v 0.59807 q 0,0.0482 -0.0358,0.0827 -0.0345,0.0331 -0.0827,0.0331 h -0.92879 q -0.0482,0 -0.0841,-0.0344 -0.0345,-0.0344 -0.0345,-0.0813 v -1.59715 q 0,-0.0482 0.0345,-0.0813 0.0345,-0.0345 0.0841,-0.0345 z m 0.11299,1.23059 v 0.36656 h 0.70005 v -0.36656 z" font-size="0.796494" style="font-style:normal;font-variant:normal;font-weight:normal;font-stretch:normal;font-family:Droid Sans;-inkscape-font-specification:'OCR A Extended, Normal';font-variant-ligatures:normal;font-variant-caps:normal;font-variant-numeric:normal;font-feature-settings:normal;text-align:start;writing-mode:lr-tb;text-anchor:start;"  stroke-width="0.0746713"/>
                                            <path id="path1211" gorn="0.3.0.0.0.0.15.0.0.0.0.5" d="m -163.63199,141.1419 v 0.42581 l -0.47129,1.20027 q -0.0358,0.0868 -0.113,0.0868 -0.0813,0 -0.11575,-0.0868 l -0.46853,-1.20027 v -0.42581 q 0,-0.0496 0.0331,-0.0841 0.0345,-0.0345 0.0827,-0.0345 0.0482,0 0.0813,0.0345 0.0344,0.0344 0.0344,0.0841 v 0.37758 l 0.35277,0.89848 0.35278,-0.89573 v -0.38033 q 0,-0.0496 0.0331,-0.0841 0.0345,-0.0345 0.0827,-0.0345 0.0482,0 0.0813,0.0345 0.0344,0.0344 0.0344,0.0841 z" font-size="0.796494" style="font-style:normal;font-variant:normal;font-weight:normal;font-stretch:normal;font-family:Droid Sans;-inkscape-font-specification:'OCR A Extended, Normal';font-variant-ligatures:normal;font-variant-caps:normal;font-variant-numeric:normal;font-feature-settings:normal;text-align:start;writing-mode:lr-tb;text-anchor:start;"  stroke-width="0.0746713"/>
                                        </g>
                                    </g>
                                </g>
                            </g>
                        </g>
                    </g>
                </g>
            </g>
        </g>
    </g>
</svg>
